<svg xmlns="http://www.w3.org/2000/svg" xmlns:xlink="http://www.w3.org/1999/xlink" width="60" zoomAndPan="magnify" viewBox="0 0 45 44.999999" height="60" preserveAspectRatio="xMidYMid meet" version="1.0"><defs><g/><clipPath id="17563bc8a0"><path d="M 1.738281 1.78125 L 43.097656 1.78125 L 43.097656 43.140625 L 1.738281 43.140625 Z M 1.738281 1.78125 " clip-rule="nonzero"/></clipPath><clipPath id="199b67c790"><path d="M 0.832031 0.832031 L 44.488281 0.832031 L 44.488281 44.488281 L 0.832031 44.488281 Z M 0.832031 0.832031 " clip-rule="nonzero"/></clipPath></defs><g clip-path="url(#17563bc8a0)"><path fill="#c89f79" d="M 43.429688 22.628906 C 43.429688 23.3125 43.398438 23.992188 43.332031 24.671875 C 43.265625 25.351562 43.164062 26.027344 43.03125 26.695312 C 42.898438 27.367188 42.730469 28.027344 42.535156 28.679688 C 42.335938 29.335938 42.105469 29.976562 41.84375 30.609375 C 41.582031 31.238281 41.292969 31.855469 40.96875 32.457031 C 40.648438 33.058594 40.296875 33.644531 39.917969 34.210938 C 39.539062 34.78125 39.132812 35.328125 38.699219 35.855469 C 38.265625 36.382812 37.808594 36.886719 37.324219 37.371094 C 36.84375 37.855469 36.335938 38.3125 35.808594 38.746094 C 35.28125 39.179688 34.734375 39.585938 34.167969 39.964844 C 33.597656 40.34375 33.011719 40.691406 32.410156 41.015625 C 31.808594 41.335938 31.191406 41.628906 30.5625 41.890625 C 29.929688 42.152344 29.289062 42.382812 28.636719 42.578125 C 27.984375 42.777344 27.320312 42.941406 26.652344 43.078125 C 25.980469 43.210938 25.308594 43.308594 24.628906 43.375 C 23.949219 43.441406 23.265625 43.476562 22.585938 43.476562 C 21.902344 43.476562 21.21875 43.441406 20.539062 43.375 C 19.863281 43.308594 19.1875 43.210938 18.515625 43.078125 C 17.847656 42.941406 17.1875 42.777344 16.53125 42.578125 C 15.878906 42.382812 15.238281 42.152344 14.605469 41.890625 C 13.976562 41.628906 13.359375 41.335938 12.757812 41.015625 C 12.15625 40.691406 11.570312 40.34375 11.003906 39.964844 C 10.433594 39.585938 9.886719 39.179688 9.359375 38.746094 C 8.832031 38.3125 8.324219 37.855469 7.84375 37.371094 C 7.359375 36.886719 6.902344 36.382812 6.46875 35.855469 C 6.035156 35.328125 5.628906 34.78125 5.25 34.210938 C 4.871094 33.644531 4.519531 33.058594 4.199219 32.457031 C 3.878906 31.855469 3.585938 31.238281 3.324219 30.609375 C 3.0625 29.976562 2.832031 29.335938 2.636719 28.679688 C 2.4375 28.027344 2.269531 27.367188 2.136719 26.695312 C 2.003906 26.027344 1.90625 25.351562 1.835938 24.671875 C 1.769531 23.992188 1.738281 23.3125 1.738281 22.628906 C 1.738281 21.945312 1.769531 21.265625 1.835938 20.585938 C 1.90625 19.90625 2.003906 19.230469 2.136719 18.5625 C 2.269531 17.894531 2.4375 17.230469 2.636719 16.578125 C 2.832031 15.925781 3.0625 15.28125 3.324219 14.652344 C 3.585938 14.019531 3.878906 13.40625 4.199219 12.800781 C 4.519531 12.199219 4.871094 11.617188 5.25 11.046875 C 5.628906 10.480469 6.035156 9.933594 6.46875 9.40625 C 6.902344 8.875 7.359375 8.371094 7.84375 7.890625 C 8.324219 7.40625 8.832031 6.949219 9.359375 6.515625 C 9.886719 6.082031 10.433594 5.675781 11.003906 5.296875 C 11.570312 4.917969 12.15625 4.566406 12.757812 4.246094 C 13.359375 3.921875 13.976562 3.632812 14.605469 3.371094 C 15.238281 3.109375 15.878906 2.878906 16.53125 2.679688 C 17.1875 2.480469 17.847656 2.316406 18.515625 2.183594 C 19.1875 2.050781 19.863281 1.949219 20.539062 1.882812 C 21.21875 1.816406 21.902344 1.78125 22.585938 1.78125 C 23.265625 1.78125 23.949219 1.816406 24.628906 1.882812 C 25.308594 1.949219 25.980469 2.050781 26.652344 2.183594 C 27.320312 2.316406 27.984375 2.480469 28.636719 2.679688 C 29.289062 2.878906 29.929688 3.109375 30.5625 3.371094 C 31.191406 3.632812 31.808594 3.921875 32.410156 4.246094 C 33.011719 4.566406 33.597656 4.917969 34.167969 5.296875 C 34.734375 5.675781 35.28125 6.082031 35.808594 6.515625 C 36.335938 6.949219 36.84375 7.40625 37.324219 7.890625 C 37.808594 8.371094 38.265625 8.875 38.699219 9.40625 C 39.132812 9.933594 39.539062 10.480469 39.917969 11.046875 C 40.296875 11.617188 40.648438 12.199219 40.96875 12.800781 C 41.292969 13.40625 41.582031 14.019531 41.84375 14.652344 C 42.105469 15.28125 42.335938 15.925781 42.535156 16.578125 C 42.730469 17.230469 42.898438 17.894531 43.03125 18.5625 C 43.164062 19.230469 43.265625 19.90625 43.332031 20.585938 C 43.398438 21.265625 43.429688 21.945312 43.429688 22.628906 Z M 43.429688 22.628906 " fill-opacity="1" fill-rule="nonzero"/></g><g fill="#ffffff" fill-opacity="1"><g transform="translate(9.335563, 27.931132)"><g><path d="M 7.363281 -9.402344 C 7.347656 -9.960938 7.332031 -10.515625 7.222656 -11.058594 C 7.128906 -11.539062 7.128906 -11.550781 6.621094 -11.523438 C 6.449219 -11.523438 6.277344 -11.523438 6.09375 -11.507812 C 5.535156 -11.460938 5.503906 -11.429688 5.429688 -10.871094 C 5.429688 -10.855469 5.429688 -10.839844 5.429688 -10.824219 C 5.257812 -9.636719 5.226562 -8.445312 5.164062 -7.253906 C 5.117188 -6.324219 5.074219 -5.414062 4.980469 -4.5 C 4.949219 -4.175781 4.949219 -4.175781 4.609375 -4.144531 C 4.285156 -4.128906 3.945312 -4.113281 3.617188 -4.066406 C 2.890625 -3.988281 2.226562 -3.757812 1.65625 -3.277344 C 0.972656 -2.691406 0.679688 -1.949219 0.789062 -1.050781 C 0.882812 -0.261719 1.421875 0.371094 2.179688 0.570312 C 2.429688 0.632812 2.691406 0.664062 2.953125 0.664062 C 4.46875 0.679688 5.566406 -0.015625 6.308594 -1.300781 C 6.679688 -1.933594 6.898438 -2.613281 7.050781 -3.308594 C 7.160156 -3.820312 7.175781 -3.804688 7.703125 -3.867188 C 8.011719 -3.898438 8.304688 -3.945312 8.613281 -4.003906 C 8.753906 -4.019531 8.863281 -4.082031 8.832031 -4.253906 C 8.800781 -4.4375 8.675781 -4.4375 8.535156 -4.40625 C 8.210938 -4.359375 7.902344 -4.300781 7.578125 -4.269531 C 7.269531 -4.238281 7.253906 -4.253906 7.285156 -4.5625 C 7.40625 -5.582031 7.40625 -6.605469 7.378906 -7.625 C 7.378906 -8.210938 7.390625 -8.816406 7.363281 -9.402344 Z M 4.777344 -3.125 C 4.65625 -2.519531 4.515625 -1.917969 4.285156 -1.359375 C 4.144531 -1.035156 3.988281 -0.726562 3.757812 -0.449219 C 3.230469 0.1875 2.613281 0.15625 2.132812 -0.511719 C 1.5625 -1.300781 1.730469 -2.445312 2.503906 -3.078125 C 2.875 -3.386719 3.308594 -3.542969 3.773438 -3.601562 C 3.960938 -3.617188 4.160156 -3.632812 4.347656 -3.648438 C 4.886719 -3.664062 4.886719 -3.648438 4.777344 -3.125 Z M 4.777344 -3.125 "/></g></g></g><g fill="#ffffff" fill-opacity="1"><g transform="translate(18.071704, 27.931132)"><g><path d="M 4.359375 -2.289062 C 3.789062 -3.214844 3.214844 -4.160156 2.800781 -5.164062 C 2.675781 -5.445312 2.707031 -5.644531 2.890625 -5.875 C 3.214844 -6.246094 3.527344 -6.648438 3.820312 -7.050781 C 4.097656 -7.4375 4.332031 -7.871094 4.40625 -8.351562 C 4.609375 -9.371094 3.882812 -10.238281 2.859375 -10.207031 C 2.042969 -10.191406 1.484375 -9.773438 1.128906 -9.0625 C 0.945312 -8.675781 0.882812 -8.257812 0.867188 -7.824219 C 0.851562 -6.992188 1.003906 -6.171875 1.269531 -5.382812 C 1.375 -5.089844 1.359375 -4.839844 1.238281 -4.546875 C 0.867188 -3.664062 0.632812 -2.738281 0.851562 -1.746094 C 1.191406 -0.277344 2.738281 0.449219 4.050781 -0.277344 C 4.253906 -0.386719 4.40625 -0.433594 4.59375 -0.277344 C 4.808594 -0.109375 5.027344 -0.125 5.226562 -0.324219 C 5.320312 -0.417969 5.476562 -0.480469 5.550781 -0.632812 C 5.460938 -0.742188 5.382812 -0.867188 5.289062 -0.972656 C 5.105469 -1.191406 5.027344 -1.390625 5.179688 -1.6875 C 5.273438 -1.855469 5.304688 -2.074219 5.351562 -2.257812 C 5.488281 -2.859375 5.476562 -3.480469 5.519531 -4.097656 C 5.519531 -4.269531 5.488281 -4.4375 5.707031 -4.53125 C 5.816406 -4.578125 5.769531 -4.71875 5.738281 -4.808594 C 5.707031 -4.917969 5.613281 -4.933594 5.535156 -4.933594 C 4.792969 -4.917969 4.703125 -4.839844 4.71875 -4.097656 C 4.730469 -3.464844 4.703125 -2.816406 4.546875 -2.179688 C 4.421875 -2.179688 4.390625 -2.242188 4.359375 -2.289062 Z M 2.613281 -2.691406 C 2.9375 -2.148438 3.292969 -1.625 3.710938 -1.128906 C 3.929688 -0.867188 3.914062 -0.820312 3.632812 -0.617188 C 3.1875 -0.308594 2.597656 -0.402344 2.195312 -0.867188 C 1.917969 -1.191406 1.792969 -1.578125 1.714844 -1.980469 C 1.578125 -2.613281 1.625 -3.246094 1.871094 -3.929688 C 2.148438 -3.464844 2.382812 -3.078125 2.613281 -2.691406 Z M 2.179688 -8.398438 C 2.195312 -8.753906 2.335938 -9.078125 2.488281 -9.386719 C 2.675781 -9.742188 2.921875 -9.742188 3.15625 -9.402344 C 3.464844 -8.9375 3.574219 -8.445312 3.402344 -7.902344 C 3.203125 -7.332031 2.859375 -6.851562 2.445312 -6.339844 C 2.179688 -7.066406 2.148438 -7.734375 2.179688 -8.398438 Z M 2.179688 -8.398438 "/></g></g></g><g fill="#ffffff" fill-opacity="1"><g transform="translate(24.627674, 27.931132)"><g><path d="M 0.882812 -4.097656 C 1.066406 -3.015625 1.5625 -2.027344 2.101562 -1.082031 C 2.445312 -0.480469 2.890625 0.03125 3.449219 0.464844 C 3.726562 0.679688 4.019531 0.898438 4.390625 0.972656 C 5.582031 1.253906 6.621094 1.035156 7.453125 0.078125 C 7.671875 -0.15625 7.871094 -0.402344 8.042969 -0.679688 C 8.367188 -1.175781 8.644531 -1.703125 8.921875 -2.226562 C 9.417969 -3.15625 9.945312 -4.066406 10.394531 -5.027344 C 10.515625 -5.304688 10.484375 -5.367188 10.175781 -5.445312 C 9.992188 -5.476562 9.867188 -5.429688 9.789062 -5.257812 C 9.726562 -5.148438 9.664062 -5.027344 9.605469 -4.917969 C 8.878906 -3.527344 8.105469 -2.179688 7.285156 -0.851562 C 6.992188 -0.386719 6.664062 0.046875 6.203125 0.339844 C 5.476562 0.804688 4.609375 0.648438 4.097656 -0.046875 C 3.867188 -0.371094 3.695312 -0.710938 3.558594 -1.082031 C 3.15625 -2.085938 2.984375 -3.125 2.890625 -4.191406 C 2.769531 -5.753906 2.84375 -7.285156 3.371094 -8.769531 C 3.558594 -9.265625 3.773438 -9.742188 4.097656 -10.160156 C 4.40625 -10.578125 4.824219 -10.734375 5.320312 -10.59375 C 5.90625 -10.421875 6.355469 -10.066406 6.695312 -9.558594 C 6.898438 -9.25 7.035156 -8.90625 7.128906 -8.566406 C 7.175781 -8.382812 7.285156 -8.304688 7.484375 -8.304688 C 8.027344 -8.304688 8.105469 -8.367188 8.105469 -8.9375 C 8.105469 -9.015625 8.105469 -9.109375 8.105469 -9.203125 C 8.011719 -11.320312 5.816406 -12.402344 4.222656 -11.753906 C 3.15625 -11.320312 2.335938 -10.625 1.761719 -9.621094 C 1.050781 -8.367188 0.742188 -7.050781 0.773438 -5.628906 C 0.789062 -5.117188 0.789062 -4.609375 0.882812 -4.097656 Z M 0.882812 -4.097656 "/></g></g></g><g clip-path="url(#199b67c790)"><path fill="#77bfa3" d="M 22.496094 44.164062 C 10.527344 44.164062 0.832031 34.402344 0.832031 22.496094 C 0.832031 10.59375 10.527344 0.832031 22.496094 0.832031 C 34.46875 0.832031 44.164062 10.527344 44.164062 22.496094 C 44.164062 34.46875 34.402344 44.164062 22.496094 44.164062 Z M 22.496094 2.167969 C 11.261719 2.167969 2.167969 11.261719 2.167969 22.496094 C 2.167969 33.734375 11.261719 42.828125 22.496094 42.828125 C 33.734375 42.828125 42.828125 33.734375 42.828125 22.496094 C 42.828125 11.261719 33.664062 2.167969 22.496094 2.167969 Z M 22.496094 2.167969 " fill-opacity="1" fill-rule="nonzero"/></g></svg>