<svg xmlns="http://www.w3.org/2000/svg" xmlns:xlink="http://www.w3.org/1999/xlink" width="490" zoomAndPan="magnify" viewBox="0 0 367.5 414.749983" height="553" preserveAspectRatio="xMidYMid meet" version="1.0"><defs><clipPath id="143091efb2"><path d="M 118 194 L 357 194 L 357 414.34375 L 118 414.34375 Z M 118 194 " clip-rule="nonzero"/></clipPath></defs><g clip-path="url(#143091efb2)"><path fill="#ffffff" d="M 356.425781 294.492188 C 355.339844 308.183594 353.753906 320.042969 348.828125 329.726562 L 312.753906 421.828125 L 305.074219 356.863281 C 288.625 360.371094 266.578125 362.042969 237.1875 361.789062 C 129.558594 361.121094 115.695312 320.792969 119.203125 273.867188 C 122.710938 226.855469 115.695312 199.636719 193.265625 195.292969 C 270.839844 190.953125 357.007812 200.886719 356.84375 254.078125 C 356.675781 291.152344 357.34375 282.300781 356.425781 294.492188 Z M 356.425781 294.492188 " fill-opacity="1" fill-rule="nonzero"/></g><path fill="#77bfa3" d="M 264.242188 334.652344 C 269.585938 331.480469 286.871094 326.554688 290.375 323.546875 C 288.875 317.785156 265.328125 240.550781 258.230469 216.417969 C 252.800781 215.25 238.859375 211.410156 233.261719 210.90625 C 217.230469 244.222656 197.609375 293.15625 185.167969 327.972656 C 193.351562 330.144531 205.125 332.816406 214.558594 334.652344 C 214.894531 333.152344 218.234375 324.132812 223.078125 311.609375 C 234.683594 311.523438 246.289062 311.191406 257.894531 310.4375 C 260.234375 319.039062 262.320312 327.222656 264.242188 334.652344 Z M 231.175781 290.648438 C 235.351562 279.878906 239.777344 268.1875 243.867188 257.082031 C 246.707031 267.9375 249.710938 279.292969 252.636719 290.480469 C 245.539062 290.484375 238.355469 290.566406 231.175781 290.648438 Z M 231.175781 290.648438 " fill-opacity="1" fill-rule="nonzero"/><path fill="#ffffff" d="M 142.417969 189.28125 C 114.195312 189.449219 92.148438 188.113281 74.949219 185.191406 L 67.851562 267.351562 L 19.253906 153.960938 C 13.660156 143.191406 11.992188 129.996094 10.738281 114.882812 C 9.652344 101.441406 10.402344 111.210938 10.238281 70.292969 C 10.152344 11.511719 105.34375 0.574219 190.929688 5.332031 C 276.515625 10.09375 268.917969 40.152344 272.757812 92.089844 C 276.597656 143.941406 261.234375 188.445312 142.417969 189.28125 Z M 142.417969 189.28125 " fill-opacity="1" fill-rule="nonzero"/><path fill="#77bfa3" d="M 176.484375 136.09375 C 186.003906 118.222656 189.09375 97.347656 187.757812 77.140625 C 186.921875 64.449219 184.25 51.507812 176.652344 41.320312 C 157.78125 15.9375 115.277344 20.945312 96.242188 43.324219 C 83.550781 58.269531 76.203125 77.476562 74.195312 96.929688 C 73.695312 102.023438 73.445312 107.203125 74.03125 112.296875 C 75.535156 125.40625 82.046875 137.761719 91.648438 146.78125 C 101.25 155.796875 113.691406 161.558594 126.71875 163.648438 C 132.648438 164.566406 138.742188 164.816406 144.585938 163.5625 C 148.011719 162.8125 151.265625 161.558594 154.355469 159.890625 C 156.945312 163.480469 159.699219 167.070312 162.539062 170.492188 C 168.800781 163.648438 173.476562 157.71875 181.160156 152.625 C 178.65625 148.785156 176.234375 144.777344 173.8125 140.683594 C 174.8125 139.097656 175.730469 137.59375 176.484375 136.09375 Z M 122.210938 131.917969 C 119.203125 130.75 116.53125 128.660156 114.359375 126.238281 C 106.59375 117.554688 104.839844 105.113281 105.257812 93.507812 C 105.59375 84.65625 107.097656 75.640625 111.605469 68.039062 C 116.449219 59.941406 126.800781 52.007812 136.570312 55.597656 C 147.675781 59.773438 154.859375 67.121094 157.53125 78.644531 C 159.949219 89.25 158.867188 100.6875 154.691406 110.707031 C 152.769531 108.121094 150.765625 105.613281 148.679688 103.195312 C 144.003906 107.035156 135.902344 114.632812 130.894531 117.804688 C 132.8125 122.316406 134.816406 126.824219 137.070312 131.25 C 132.394531 133.253906 126.96875 133.835938 122.210938 131.917969 Z M 122.210938 131.917969 " fill-opacity="1" fill-rule="nonzero"/></svg>