<svg xmlns="http://www.w3.org/2000/svg" xmlns:xlink="http://www.w3.org/1999/xlink" width="100" zoomAndPan="magnify" viewBox="0 0 75 74.999997" height="100" preserveAspectRatio="xMidYMid meet" version="1.0"><defs><g/><clipPath id="2e598264c4"><path d="M 0.0390625 0.152344 L 74.824219 0.152344 L 74.824219 74.9375 L 0.0390625 74.9375 Z M 0.0390625 0.152344 " clip-rule="nonzero"/></clipPath></defs><path fill="#c89f79" d="M 76.375 36.414062 C 76.375 37.679688 76.3125 38.9375 76.191406 40.195312 C 76.066406 41.449219 75.882812 42.695312 75.636719 43.933594 C 75.390625 45.171875 75.082031 46.394531 74.714844 47.605469 C 74.351562 48.8125 73.925781 50 73.441406 51.164062 C 72.957031 52.332031 72.417969 53.472656 71.824219 54.585938 C 71.230469 55.699219 70.582031 56.78125 69.878906 57.828125 C 69.179688 58.878906 68.429688 59.890625 67.628906 60.867188 C 66.828125 61.84375 65.980469 62.777344 65.085938 63.667969 C 64.195312 64.5625 63.261719 65.410156 62.285156 66.210938 C 61.308594 67.011719 60.296875 67.761719 59.246094 68.464844 C 58.195312 69.164062 57.117188 69.8125 56.003906 70.40625 C 54.890625 71.003906 53.75 71.542969 52.582031 72.023438 C 51.417969 72.507812 50.230469 72.933594 49.023438 73.300781 C 47.8125 73.664062 46.589844 73.972656 45.351562 74.21875 C 44.113281 74.464844 42.867188 74.648438 41.609375 74.773438 C 40.355469 74.898438 39.09375 74.957031 37.832031 74.957031 C 36.570312 74.957031 35.3125 74.898438 34.054688 74.773438 C 32.800781 74.648438 31.550781 74.464844 30.3125 74.21875 C 29.074219 73.972656 27.851562 73.664062 26.644531 73.300781 C 25.4375 72.933594 24.25 72.507812 23.082031 72.023438 C 21.917969 71.542969 20.777344 71.003906 19.664062 70.40625 C 18.550781 69.8125 17.46875 69.164062 16.421875 68.464844 C 15.371094 67.761719 14.359375 67.011719 13.382812 66.210938 C 12.40625 65.410156 11.472656 64.5625 10.578125 63.667969 C 9.6875 62.777344 8.839844 61.84375 8.039062 60.867188 C 7.238281 59.890625 6.488281 58.878906 5.785156 57.828125 C 5.085938 56.78125 4.4375 55.699219 3.839844 54.585938 C 3.246094 53.472656 2.707031 52.332031 2.222656 51.164062 C 1.742188 50 1.316406 48.8125 0.949219 47.605469 C 0.582031 46.394531 0.277344 45.171875 0.03125 43.933594 C -0.214844 42.695312 -0.398438 41.449219 -0.523438 40.195312 C -0.648438 38.9375 -0.710938 37.679688 -0.710938 36.414062 C -0.710938 35.152344 -0.648438 33.894531 -0.523438 32.636719 C -0.398438 31.382812 -0.214844 30.132812 0.03125 28.898438 C 0.277344 27.660156 0.582031 26.433594 0.949219 25.226562 C 1.316406 24.019531 1.742188 22.832031 2.222656 21.667969 C 2.707031 20.5 3.246094 19.359375 3.839844 18.246094 C 4.4375 17.132812 5.085938 16.050781 5.785156 15.003906 C 6.488281 13.953125 7.238281 12.941406 8.039062 11.964844 C 8.839844 10.988281 9.6875 10.054688 10.578125 9.160156 C 11.472656 8.269531 12.40625 7.421875 13.382812 6.621094 C 14.359375 5.820312 15.371094 5.070312 16.421875 4.367188 C 17.46875 3.667969 18.550781 3.019531 19.664062 2.425781 C 20.777344 1.828125 21.917969 1.289062 23.082031 0.808594 C 24.25 0.324219 25.4375 -0.101562 26.644531 -0.46875 C 27.851562 -0.832031 29.074219 -1.140625 30.3125 -1.386719 C 31.550781 -1.632812 32.800781 -1.816406 34.054688 -1.941406 C 35.3125 -2.066406 36.570312 -2.125 37.832031 -2.125 C 39.09375 -2.125 40.355469 -2.066406 41.609375 -1.941406 C 42.867188 -1.816406 44.113281 -1.632812 45.351562 -1.386719 C 46.589844 -1.140625 47.8125 -0.832031 49.023438 -0.46875 C 50.230469 -0.101562 51.417969 0.324219 52.582031 0.808594 C 53.75 1.289062 54.890625 1.828125 56.003906 2.425781 C 57.117188 3.019531 58.195312 3.667969 59.246094 4.367188 C 60.296875 5.070312 61.308594 5.820312 62.285156 6.621094 C 63.261719 7.421875 64.195312 8.269531 65.085938 9.160156 C 65.980469 10.054688 66.828125 10.988281 67.628906 11.964844 C 68.429688 12.941406 69.179688 13.953125 69.878906 15.003906 C 70.582031 16.050781 71.230469 17.132812 71.824219 18.246094 C 72.417969 19.359375 72.957031 20.5 73.441406 21.667969 C 73.925781 22.832031 74.351562 24.019531 74.714844 25.226562 C 75.082031 26.433594 75.390625 27.660156 75.636719 28.898438 C 75.882812 30.132812 76.066406 31.382812 76.191406 32.636719 C 76.3125 33.894531 76.375 35.152344 76.375 36.414062 Z M 76.375 36.414062 " fill-opacity="1" fill-rule="nonzero"/><path fill="#ffffff" d="M 37.832031 76.527344 C 16.089844 76.527344 -1.527344 58.789062 -1.527344 37.167969 C -1.527344 15.542969 16.089844 -2.195312 37.832031 -2.195312 C 59.578125 -2.195312 77.195312 15.421875 77.195312 37.167969 C 77.195312 58.910156 59.457031 76.527344 37.832031 76.527344 Z M 37.832031 0.234375 C 17.425781 0.234375 0.902344 16.757812 0.902344 37.167969 C 0.902344 57.574219 17.425781 74.097656 37.832031 74.097656 C 58.242188 74.097656 74.765625 57.574219 74.765625 37.167969 C 74.765625 16.757812 58.121094 0.234375 37.832031 0.234375 Z M 37.832031 0.234375 " fill-opacity="1" fill-rule="nonzero"/><g clip-path="url(#2e598264c4)"><path fill="#1c2529" d="M 37.4375 74.949219 C 16.808594 74.949219 0.0390625 58.179688 0.0390625 37.550781 C 0.0390625 16.921875 16.824219 0.152344 37.4375 0.152344 C 47.429688 0.152344 56.828125 4.039062 63.886719 11.101562 C 70.949219 18.164062 74.835938 27.558594 74.835938 37.550781 C 74.835938 58.179688 58.066406 74.949219 37.4375 74.949219 Z M 37.4375 2.589844 C 18.15625 2.589844 2.476562 18.265625 2.476562 37.550781 C 2.476562 56.832031 18.15625 72.511719 37.4375 72.511719 C 56.722656 72.511719 72.398438 56.832031 72.398438 37.550781 C 72.398438 28.214844 68.765625 19.433594 62.167969 12.820312 C 55.570312 6.210938 46.773438 2.589844 37.4375 2.589844 Z M 37.4375 2.589844 " fill-opacity="1" fill-rule="nonzero"/></g><g fill="#ffffff" fill-opacity="1"><g transform="translate(13.337729, 46.214899)"><g><path d="M 13.609375 -17.382812 C 13.582031 -18.414062 13.550781 -19.441406 13.351562 -20.441406 C 13.179688 -21.328125 13.179688 -21.359375 12.238281 -21.300781 C 11.921875 -21.300781 11.609375 -21.300781 11.265625 -21.273438 C 10.234375 -21.1875 10.179688 -21.128906 10.035156 -20.101562 C 10.035156 -20.070312 10.035156 -20.042969 10.035156 -20.015625 C 9.722656 -17.8125 9.664062 -15.609375 9.550781 -13.410156 C 9.464844 -11.695312 9.378906 -10.007812 9.207031 -8.320312 C 9.148438 -7.71875 9.148438 -7.71875 8.519531 -7.664062 C 7.917969 -7.632812 7.289062 -7.605469 6.691406 -7.519531 C 5.347656 -7.375 4.117188 -6.949219 3.058594 -6.0625 C 1.800781 -4.976562 1.257812 -3.601562 1.457031 -1.945312 C 1.628906 -0.484375 2.628906 0.6875 4.03125 1.058594 C 4.488281 1.171875 4.976562 1.230469 5.460938 1.230469 C 8.261719 1.257812 10.292969 -0.0273438 11.664062 -2.402344 C 12.351562 -3.574219 12.75 -4.832031 13.039062 -6.117188 C 13.238281 -7.0625 13.265625 -7.035156 14.238281 -7.148438 C 14.808594 -7.207031 15.355469 -7.289062 15.925781 -7.40625 C 16.183594 -7.433594 16.382812 -7.546875 16.324219 -7.863281 C 16.269531 -8.207031 16.039062 -8.207031 15.78125 -8.148438 C 15.183594 -8.0625 14.609375 -7.949219 14.011719 -7.890625 C 13.4375 -7.835938 13.410156 -7.863281 13.464844 -8.433594 C 13.695312 -10.320312 13.695312 -12.207031 13.636719 -14.09375 C 13.636719 -15.183594 13.667969 -16.296875 13.609375 -17.382812 Z M 8.835938 -5.777344 C 8.605469 -4.660156 8.347656 -3.546875 7.917969 -2.515625 C 7.664062 -1.914062 7.375 -1.34375 6.949219 -0.828125 C 5.976562 0.34375 4.832031 0.285156 3.945312 -0.945312 C 2.886719 -2.402344 3.203125 -4.515625 4.632812 -5.691406 C 5.316406 -6.261719 6.117188 -6.546875 6.976562 -6.660156 C 7.320312 -6.691406 7.691406 -6.71875 8.035156 -6.746094 C 9.035156 -6.777344 9.035156 -6.746094 8.835938 -5.777344 Z M 8.835938 -5.777344 "/></g></g></g><g fill="#ffffff" fill-opacity="1"><g transform="translate(29.488679, 46.214899)"><g><path d="M 8.0625 -4.230469 C 7.003906 -5.945312 5.945312 -7.691406 5.175781 -9.550781 C 4.945312 -10.0625 5.003906 -10.4375 5.347656 -10.863281 C 5.945312 -11.550781 6.519531 -12.292969 7.0625 -13.039062 C 7.578125 -13.753906 8.003906 -14.554688 8.148438 -15.441406 C 8.519531 -17.328125 7.175781 -18.925781 5.289062 -18.871094 C 3.773438 -18.84375 2.746094 -18.070312 2.085938 -16.753906 C 1.742188 -16.039062 1.628906 -15.269531 1.601562 -14.46875 C 1.574219 -12.921875 1.859375 -11.40625 2.34375 -9.949219 C 2.542969 -9.40625 2.515625 -8.949219 2.289062 -8.40625 C 1.601562 -6.777344 1.171875 -5.0625 1.574219 -3.230469 C 2.203125 -0.515625 5.0625 0.828125 7.492188 -0.515625 C 7.863281 -0.714844 8.148438 -0.800781 8.492188 -0.515625 C 8.890625 -0.199219 9.292969 -0.230469 9.664062 -0.601562 C 9.835938 -0.773438 10.121094 -0.886719 10.265625 -1.171875 C 10.09375 -1.371094 9.949219 -1.601562 9.777344 -1.800781 C 9.433594 -2.203125 9.292969 -2.574219 9.578125 -3.117188 C 9.75 -3.429688 9.808594 -3.832031 9.894531 -4.175781 C 10.148438 -5.289062 10.121094 -6.433594 10.207031 -7.578125 C 10.207031 -7.890625 10.148438 -8.207031 10.550781 -8.378906 C 10.75 -8.464844 10.664062 -8.71875 10.609375 -8.890625 C 10.550781 -9.09375 10.378906 -9.121094 10.234375 -9.121094 C 8.863281 -9.09375 8.691406 -8.949219 8.71875 -7.578125 C 8.75 -6.40625 8.691406 -5.203125 8.40625 -4.03125 C 8.175781 -4.03125 8.121094 -4.144531 8.0625 -4.230469 Z M 4.832031 -4.976562 C 5.433594 -3.972656 6.089844 -3.003906 6.863281 -2.085938 C 7.261719 -1.601562 7.234375 -1.515625 6.71875 -1.144531 C 5.890625 -0.570312 4.804688 -0.742188 4.058594 -1.601562 C 3.546875 -2.203125 3.316406 -2.917969 3.171875 -3.660156 C 2.917969 -4.832031 3.003906 -6.003906 3.460938 -7.261719 C 3.972656 -6.40625 4.402344 -5.691406 4.832031 -4.976562 Z M 4.03125 -15.523438 C 4.058594 -16.183594 4.316406 -16.785156 4.601562 -17.355469 C 4.945312 -18.011719 5.402344 -18.011719 5.832031 -17.382812 C 6.40625 -16.527344 6.605469 -15.609375 6.289062 -14.609375 C 5.917969 -13.550781 5.289062 -12.667969 4.515625 -11.722656 C 4.03125 -13.066406 3.972656 -14.296875 4.03125 -15.523438 Z M 4.03125 -15.523438 "/></g></g></g><g fill="#ffffff" fill-opacity="1"><g transform="translate(41.609039, 46.214899)"><g><path d="M 1.628906 -7.578125 C 1.972656 -5.574219 2.886719 -3.746094 3.886719 -2 C 4.515625 -0.886719 5.347656 0.0585938 6.375 0.859375 C 6.890625 1.257812 7.433594 1.660156 8.121094 1.800781 C 10.320312 2.316406 12.238281 1.914062 13.78125 0.144531 C 14.179688 -0.285156 14.554688 -0.742188 14.867188 -1.257812 C 15.46875 -2.171875 15.984375 -3.144531 16.496094 -4.117188 C 17.414062 -5.832031 18.382812 -7.519531 19.214844 -9.292969 C 19.441406 -9.808594 19.386719 -9.921875 18.8125 -10.0625 C 18.46875 -10.121094 18.242188 -10.035156 18.097656 -9.722656 C 17.984375 -9.519531 17.871094 -9.292969 17.753906 -9.09375 C 16.410156 -6.519531 14.980469 -4.03125 13.464844 -1.574219 C 12.921875 -0.714844 12.324219 0.0859375 11.464844 0.628906 C 10.121094 1.488281 8.519531 1.199219 7.578125 -0.0859375 C 7.148438 -0.6875 6.832031 -1.316406 6.574219 -2 C 5.832031 -3.859375 5.519531 -5.777344 5.347656 -7.75 C 5.117188 -10.636719 5.261719 -13.464844 6.234375 -16.210938 C 6.574219 -17.125 6.976562 -18.011719 7.578125 -18.785156 C 8.148438 -19.558594 8.921875 -19.84375 9.835938 -19.585938 C 10.921875 -19.269531 11.75 -18.613281 12.378906 -17.667969 C 12.75 -17.097656 13.007812 -16.46875 13.179688 -15.839844 C 13.265625 -15.496094 13.464844 -15.355469 13.839844 -15.355469 C 14.839844 -15.355469 14.980469 -15.46875 14.980469 -16.527344 C 14.980469 -16.667969 14.980469 -16.839844 14.980469 -17.011719 C 14.808594 -20.929688 10.75 -22.929688 7.804688 -21.730469 C 5.832031 -20.929688 4.316406 -19.640625 3.257812 -17.785156 C 1.945312 -15.46875 1.371094 -13.039062 1.429688 -10.40625 C 1.457031 -9.464844 1.457031 -8.519531 1.628906 -7.578125 Z M 1.628906 -7.578125 "/></g></g></g></svg>