<svg xmlns="http://www.w3.org/2000/svg" xmlns:xlink="http://www.w3.org/1999/xlink" width="60" zoomAndPan="magnify" viewBox="0 0 45 44.999999" height="60" preserveAspectRatio="xMidYMid meet" version="1.0"><defs><g/><clipPath id="6e8d23faf4"><path d="M 0.0273438 0.0195312 L 44.96875 0.0195312 L 44.96875 44.960938 L 0.0273438 44.960938 Z M 0.0273438 0.0195312 " clip-rule="nonzero"/></clipPath></defs><path fill="#c89f79" d="M 45.898438 21.8125 C 45.898438 22.570312 45.863281 23.328125 45.789062 24.082031 C 45.714844 24.835938 45.601562 25.585938 45.453125 26.328125 C 45.308594 27.074219 45.121094 27.808594 44.902344 28.535156 C 44.683594 29.261719 44.425781 29.972656 44.136719 30.675781 C 43.847656 31.375 43.523438 32.0625 43.164062 32.730469 C 42.808594 33.398438 42.417969 34.050781 41.996094 34.679688 C 41.574219 35.308594 41.125 35.917969 40.640625 36.503906 C 40.160156 37.089844 39.652344 37.652344 39.117188 38.191406 C 38.578125 38.726562 38.019531 39.234375 37.429688 39.714844 C 36.84375 40.199219 36.238281 40.648438 35.605469 41.070312 C 34.976562 41.492188 34.324219 41.882812 33.65625 42.238281 C 32.988281 42.597656 32.300781 42.921875 31.601562 43.210938 C 30.902344 43.5 30.1875 43.757812 29.460938 43.976562 C 28.734375 44.195312 28 44.378906 27.257812 44.527344 C 26.511719 44.675781 25.761719 44.789062 25.007812 44.863281 C 24.253906 44.9375 23.496094 44.972656 22.738281 44.972656 C 21.980469 44.972656 21.222656 44.9375 20.46875 44.863281 C 19.710938 44.789062 18.960938 44.675781 18.21875 44.527344 C 17.476562 44.378906 16.738281 44.195312 16.015625 43.976562 C 15.289062 43.757812 14.574219 43.5 13.875 43.210938 C 13.171875 42.921875 12.488281 42.597656 11.820312 42.238281 C 11.148438 41.882812 10.5 41.492188 9.867188 41.070312 C 9.238281 40.648438 8.628906 40.199219 8.042969 39.714844 C 7.457031 39.234375 6.894531 38.726562 6.359375 38.191406 C 5.824219 37.652344 5.3125 37.089844 4.832031 36.503906 C 4.351562 35.917969 3.898438 35.308594 3.480469 34.679688 C 3.058594 34.050781 2.667969 33.398438 2.308594 32.730469 C 1.953125 32.0625 1.628906 31.375 1.339844 30.675781 C 1.046875 29.972656 0.792969 29.261719 0.574219 28.535156 C 0.351562 27.808594 0.167969 27.074219 0.0195312 26.328125 C -0.128906 25.585938 -0.238281 24.835938 -0.3125 24.082031 C -0.386719 23.328125 -0.425781 22.570312 -0.425781 21.8125 C -0.425781 21.050781 -0.386719 20.296875 -0.3125 19.539062 C -0.238281 18.785156 -0.128906 18.035156 0.0195312 17.292969 C 0.167969 16.546875 0.351562 15.8125 0.574219 15.085938 C 0.792969 14.363281 1.046875 13.648438 1.339844 12.949219 C 1.628906 12.246094 1.953125 11.5625 2.308594 10.894531 C 2.667969 10.222656 3.058594 9.574219 3.480469 8.941406 C 3.898438 8.3125 4.351562 7.703125 4.832031 7.117188 C 5.3125 6.53125 5.824219 5.96875 6.359375 5.433594 C 6.894531 4.898438 7.457031 4.386719 8.042969 3.90625 C 8.628906 3.425781 9.238281 2.972656 9.867188 2.550781 C 10.5 2.132812 11.148438 1.742188 11.820312 1.382812 C 12.488281 1.027344 13.171875 0.703125 13.875 0.410156 C 14.574219 0.121094 15.289062 -0.132812 16.015625 -0.355469 C 16.738281 -0.574219 17.476562 -0.757812 18.21875 -0.90625 C 18.960938 -1.054688 19.710938 -1.164062 20.46875 -1.238281 C 21.222656 -1.3125 21.980469 -1.351562 22.738281 -1.351562 C 23.496094 -1.351562 24.253906 -1.3125 25.007812 -1.238281 C 25.761719 -1.164062 26.511719 -1.054688 27.257812 -0.90625 C 28 -0.757812 28.734375 -0.574219 29.460938 -0.355469 C 30.1875 -0.132812 30.902344 0.121094 31.601562 0.410156 C 32.300781 0.703125 32.988281 1.027344 33.65625 1.382812 C 34.324219 1.742188 34.976562 2.132812 35.605469 2.550781 C 36.238281 2.972656 36.84375 3.425781 37.429688 3.90625 C 38.019531 4.386719 38.578125 4.898438 39.117188 5.433594 C 39.652344 5.96875 40.160156 6.53125 40.640625 7.117188 C 41.125 7.703125 41.574219 8.3125 41.996094 8.941406 C 42.417969 9.574219 42.808594 10.222656 43.164062 10.894531 C 43.523438 11.5625 43.847656 12.246094 44.136719 12.949219 C 44.425781 13.648438 44.683594 14.363281 44.902344 15.085938 C 45.121094 15.8125 45.308594 16.546875 45.453125 17.292969 C 45.601562 18.035156 45.714844 18.785156 45.789062 19.539062 C 45.863281 20.296875 45.898438 21.050781 45.898438 21.8125 Z M 45.898438 21.8125 " fill-opacity="1" fill-rule="nonzero"/><path fill="#ffffff" d="M 22.738281 45.917969 C 9.667969 45.917969 -0.917969 35.257812 -0.917969 22.261719 C -0.917969 9.265625 9.667969 -1.390625 22.738281 -1.390625 C 35.804688 -1.390625 46.390625 9.195312 46.390625 22.261719 C 46.390625 35.332031 35.734375 45.917969 22.738281 45.917969 Z M 22.738281 0.0664062 C 10.472656 0.0664062 0.542969 9.996094 0.542969 22.261719 C 0.542969 34.527344 10.472656 44.457031 22.738281 44.457031 C 35.003906 44.457031 44.933594 34.527344 44.933594 22.261719 C 44.933594 9.996094 34.929688 0.0664062 22.738281 0.0664062 Z M 22.738281 0.0664062 " fill-opacity="1" fill-rule="nonzero"/><g clip-path="url(#6e8d23faf4)"><path fill="#1c2529" d="M 22.5 44.96875 C 10.101562 44.96875 0.0273438 34.890625 0.0273438 22.492188 C 0.0273438 10.09375 10.113281 0.0195312 22.5 0.0195312 C 28.503906 0.0195312 34.152344 2.355469 38.394531 6.597656 C 42.636719 10.839844 44.976562 16.488281 44.976562 22.492188 C 44.976562 34.890625 34.898438 44.96875 22.5 44.96875 Z M 22.5 1.484375 C 10.914062 1.484375 1.492188 10.90625 1.492188 22.492188 C 1.492188 34.082031 10.914062 43.503906 22.5 43.503906 C 34.089844 43.503906 43.511719 34.082031 43.511719 22.492188 C 43.511719 16.882812 41.324219 11.605469 37.359375 7.632812 C 33.394531 3.660156 28.109375 1.484375 22.5 1.484375 Z M 22.5 1.484375 " fill-opacity="1" fill-rule="nonzero"/></g><g fill="#ffffff" fill-opacity="1"><g transform="translate(8.016798, 27.70006)"><g><path d="M 8.179688 -10.445312 C 8.160156 -11.066406 8.144531 -11.683594 8.023438 -12.285156 C 7.921875 -12.816406 7.921875 -12.835938 7.355469 -12.800781 C 7.164062 -12.800781 6.976562 -12.800781 6.769531 -12.785156 C 6.152344 -12.730469 6.117188 -12.699219 6.03125 -12.078125 C 6.03125 -12.0625 6.03125 -12.042969 6.03125 -12.027344 C 5.84375 -10.703125 5.808594 -9.382812 5.738281 -8.058594 C 5.6875 -7.027344 5.636719 -6.015625 5.53125 -5 C 5.5 -4.640625 5.5 -4.640625 5.121094 -4.605469 C 4.757812 -4.585938 4.382812 -4.570312 4.019531 -4.519531 C 3.214844 -4.433594 2.472656 -4.175781 1.839844 -3.644531 C 1.082031 -2.988281 0.757812 -2.164062 0.875 -1.167969 C 0.980469 -0.292969 1.582031 0.414062 2.421875 0.636719 C 2.699219 0.703125 2.988281 0.738281 3.28125 0.738281 C 4.964844 0.757812 6.1875 -0.015625 7.011719 -1.441406 C 7.421875 -2.148438 7.664062 -2.902344 7.835938 -3.675781 C 7.957031 -4.242188 7.972656 -4.226562 8.558594 -4.296875 C 8.898438 -4.328125 9.226562 -4.382812 9.570312 -4.449219 C 9.726562 -4.46875 9.84375 -4.535156 9.8125 -4.726562 C 9.777344 -4.929688 9.640625 -4.929688 9.484375 -4.898438 C 9.125 -4.84375 8.78125 -4.777344 8.417969 -4.742188 C 8.074219 -4.707031 8.058594 -4.726562 8.09375 -5.070312 C 8.230469 -6.203125 8.230469 -7.335938 8.195312 -8.472656 C 8.195312 -9.125 8.214844 -9.792969 8.179688 -10.445312 Z M 5.308594 -3.472656 C 5.171875 -2.800781 5.015625 -2.128906 4.757812 -1.511719 C 4.605469 -1.152344 4.433594 -0.808594 4.175781 -0.5 C 3.589844 0.207031 2.902344 0.171875 2.371094 -0.566406 C 1.734375 -1.441406 1.925781 -2.714844 2.785156 -3.417969 C 3.195312 -3.761719 3.675781 -3.933594 4.191406 -4.003906 C 4.398438 -4.019531 4.621094 -4.039062 4.828125 -4.054688 C 5.429688 -4.070312 5.429688 -4.054688 5.308594 -3.472656 Z M 5.308594 -3.472656 "/></g></g></g><g fill="#ffffff" fill-opacity="1"><g transform="translate(17.722755, 27.70006)"><g><path d="M 4.84375 -2.542969 C 4.210938 -3.574219 3.574219 -4.621094 3.109375 -5.738281 C 2.972656 -6.046875 3.007812 -6.273438 3.214844 -6.527344 C 3.574219 -6.941406 3.917969 -7.386719 4.242188 -7.835938 C 4.554688 -8.265625 4.8125 -8.746094 4.898438 -9.277344 C 5.121094 -10.414062 4.3125 -11.375 3.179688 -11.339844 C 2.269531 -11.324219 1.648438 -10.859375 1.253906 -10.070312 C 1.046875 -9.640625 0.980469 -9.175781 0.960938 -8.695312 C 0.945312 -7.765625 1.117188 -6.855469 1.410156 -5.980469 C 1.527344 -5.652344 1.511719 -5.378906 1.375 -5.050781 C 0.960938 -4.070312 0.703125 -3.042969 0.945312 -1.941406 C 1.324219 -0.308594 3.042969 0.5 4.5 -0.308594 C 4.726562 -0.429688 4.898438 -0.480469 5.101562 -0.308594 C 5.34375 -0.121094 5.585938 -0.136719 5.808594 -0.359375 C 5.910156 -0.464844 6.082031 -0.53125 6.167969 -0.703125 C 6.066406 -0.824219 5.980469 -0.960938 5.875 -1.082031 C 5.671875 -1.324219 5.585938 -1.546875 5.757812 -1.871094 C 5.859375 -2.0625 5.894531 -2.300781 5.945312 -2.507812 C 6.101562 -3.179688 6.082031 -3.867188 6.132812 -4.554688 C 6.132812 -4.742188 6.101562 -4.929688 6.339844 -5.035156 C 6.460938 -5.085938 6.410156 -5.242188 6.375 -5.34375 C 6.339844 -5.464844 6.238281 -5.480469 6.152344 -5.480469 C 5.328125 -5.464844 5.222656 -5.378906 5.242188 -4.554688 C 5.257812 -3.847656 5.222656 -3.128906 5.050781 -2.421875 C 4.914062 -2.421875 4.878906 -2.492188 4.84375 -2.542969 Z M 2.902344 -2.988281 C 3.265625 -2.386719 3.660156 -1.804688 4.125 -1.253906 C 4.363281 -0.960938 4.347656 -0.910156 4.039062 -0.6875 C 3.539062 -0.34375 2.886719 -0.445312 2.441406 -0.960938 C 2.128906 -1.324219 1.992188 -1.753906 1.90625 -2.199219 C 1.753906 -2.902344 1.804688 -3.609375 2.078125 -4.363281 C 2.386719 -3.847656 2.644531 -3.417969 2.902344 -2.988281 Z M 2.421875 -9.328125 C 2.441406 -9.726562 2.59375 -10.085938 2.765625 -10.429688 C 2.972656 -10.824219 3.246094 -10.824219 3.503906 -10.445312 C 3.847656 -9.929688 3.96875 -9.382812 3.78125 -8.78125 C 3.558594 -8.144531 3.179688 -7.613281 2.714844 -7.042969 C 2.421875 -7.851562 2.386719 -8.589844 2.421875 -9.328125 Z M 2.421875 -9.328125 "/></g></g></g><g fill="#ffffff" fill-opacity="1"><g transform="translate(25.006518, 27.70006)"><g><path d="M 0.980469 -4.554688 C 1.1875 -3.351562 1.734375 -2.25 2.335938 -1.203125 C 2.714844 -0.53125 3.214844 0.0351562 3.832031 0.515625 C 4.140625 0.757812 4.46875 0.996094 4.878906 1.082031 C 6.203125 1.390625 7.355469 1.152344 8.28125 0.0859375 C 8.523438 -0.171875 8.746094 -0.445312 8.933594 -0.757812 C 9.296875 -1.304688 9.605469 -1.890625 9.914062 -2.472656 C 10.464844 -3.503906 11.046875 -4.519531 11.546875 -5.585938 C 11.683594 -5.894531 11.648438 -5.960938 11.304688 -6.046875 C 11.101562 -6.082031 10.960938 -6.03125 10.875 -5.84375 C 10.808594 -5.722656 10.738281 -5.585938 10.671875 -5.464844 C 9.863281 -3.917969 9.003906 -2.421875 8.09375 -0.945312 C 7.765625 -0.429688 7.40625 0.0507812 6.890625 0.378906 C 6.082031 0.894531 5.121094 0.722656 4.554688 -0.0507812 C 4.296875 -0.414062 4.105469 -0.789062 3.953125 -1.203125 C 3.503906 -2.320312 3.316406 -3.472656 3.214844 -4.65625 C 3.074219 -6.390625 3.160156 -8.09375 3.746094 -9.742188 C 3.953125 -10.292969 4.191406 -10.824219 4.554688 -11.289062 C 4.898438 -11.753906 5.359375 -11.925781 5.910156 -11.769531 C 6.5625 -11.582031 7.0625 -11.1875 7.441406 -10.617188 C 7.664062 -10.273438 7.816406 -9.898438 7.921875 -9.519531 C 7.972656 -9.3125 8.09375 -9.226562 8.316406 -9.226562 C 8.917969 -9.226562 9.003906 -9.296875 9.003906 -9.929688 C 9.003906 -10.015625 9.003906 -10.121094 9.003906 -10.222656 C 8.898438 -12.578125 6.460938 -13.78125 4.691406 -13.058594 C 3.503906 -12.578125 2.59375 -11.804688 1.957031 -10.6875 C 1.167969 -9.296875 0.824219 -7.835938 0.859375 -6.253906 C 0.875 -5.6875 0.875 -5.121094 0.980469 -4.554688 Z M 0.980469 -4.554688 "/></g></g></g></svg>